<?xml version="1.0" encoding="utf-8"?>
<!-- Generator: Adobe Illustrator 27.0.0, SVG Export Plug-In . SVG Version: 6.00 Build 0)  -->
<svg width="400px" version="1.1" xmlns="http://www.w3.org/2000/svg" xmlns:xlink="http://www.w3.org/1999/xlink" x="0px" y="0px"
	 viewBox="0 0 767.1 51" style="enable-background:new 0 0 767.1 51;" xml:space="preserve">
<style type="text/css">
	.st0{fill:#333628;}
</style>
<g id="Layer_1">
	<g>
		<path class="st0" d="M10,8.3H9.7v33.1c0,4.8,0.5,5.2,3.3,5.7l2.7,0.5v2.6H0v-2.6l2.3-0.5c2.2-0.5,3.1-0.9,3.1-5.5V8.7
			c0-4-0.6-4.3-2.6-4.8L0,3.3V0.9h17.2l20.6,32.1h0.3V9.5c0-4.8-0.5-5.1-3.3-5.7l-3.1-0.5V0.9h16v2.5l-2.3,0.5
			c-2.2,0.5-3.1,0.9-3.1,5.5v41h-5L10,8.3z"/>
		<path class="st0" d="M51.5,47.6l2.8-0.6c2-0.4,2.6-0.8,2.6-4.7V8.7c0-4-0.6-4.3-2.6-4.8l-2.8-0.6V0.9h38.9l0.9,13.5h-2.8
			c-1.6-3.8-2.8-5.8-3.8-7.2c-2.2-2.8-3.7-2.8-9.4-2.8c-4.6,0-6.5,0.4-7.9,0.6v17.8h2.1c5.4,0,7-0.4,8-2.1c0.9-1.6,1.4-2.6,1.9-4.9
			h2.8v17.8h-2.8c-0.6-2.2-1.1-3.1-1.9-5c-1-2-2.1-2.1-8-2.1h-2.1v13.2c0,7,0.2,7,8.5,7c6.3,0,7.4-0.2,9.6-3.1
			c1.3-1.7,2.8-5,4.6-9.3h2.9l-1.1,15.9H51.5V47.6z"/>
		<path class="st0" d="M97.1,47.6l2.8-0.6c2-0.4,2.6-0.8,2.6-4.7V8.7c0-4-0.6-4.3-2.6-4.8l-2.8-0.6V0.9H119v2.5L115.6,4
			c-2.1,0.4-2.6,0.7-2.6,4.7v31.2c0,6.3,0.3,6.8,7.2,6.8c6.1,0,7.6-0.9,9.7-3.9c1.3-1.9,3-4.4,4.7-9.3h2.9l-1.1,16.7H97.1V47.6z"/>
		<path class="st0" d="M140.9,47.6l2.8-0.6c2-0.4,2.6-0.8,2.6-4.7V8.7c0-4-0.6-4.3-2.6-4.8l-2.8-0.6V0.9h38.9l0.9,13.5h-2.8
			c-1.6-3.8-2.8-5.8-3.8-7.2c-2.2-2.8-3.7-2.8-9.4-2.8c-4.6,0-6.5,0.4-7.9,0.6v17.8h2.1c5.4,0,7-0.4,8-2.1c0.9-1.6,1.4-2.6,1.9-4.9
			h2.8v17.8h-2.8c-0.6-2.2-1.1-3.1-1.9-5c-1-2-2.1-2.1-8-2.1h-2.1v13.2c0,7,0.2,7,8.5,7c6.3,0,7.4-0.2,9.6-3.1
			c1.3-1.7,2.8-5,4.6-9.3h2.9l-1.1,15.9h-40.4V47.6z"/>
		<path class="st0" d="M206.4,48.9l-0.9-13.5h2.9c1.7,3.6,2.8,5.9,4.8,8.5c1.8,2.4,3.8,3.6,8.2,3.6c5.8,0,9.4-3.6,9.4-7.6
			c0-4.3-2.6-6.8-11.4-10.5c-9.6-3.9-13.2-8-13.2-15.2C206.3,6,213,0,223.2,0c5.8,0,9.6,0.5,12.3,1.4l0.9,12.2h-2.8
			c-1.8-3.8-2.5-5.2-4.3-7.3c-1.4-1.6-3.1-2.6-6.7-2.6c-5,0-8.7,3.1-8.7,7.3c0,3.7,1.8,5.6,10,9c11,4.5,15.3,8.5,15.3,15.1
			c0,8.9-6.3,16-18.2,16C214.6,51,209.6,49.8,206.4,48.9z"/>
		<path class="st0" d="M244.5,25.9C244.5,7.2,256.4,0,270.3,0c5.5,0,10.5,0.8,13.7,1.6l0.7,14.4h-2.8c-1.8-4-3.4-7.5-5.2-10
			c-1.8-2.3-3.1-2.6-7.3-2.6c-9.5,0-13.8,5.2-13.8,21c0,18,4.3,23,13.3,23c5.4,0,7-1.5,8.9-4.1c2-2.9,3-4.8,4.6-9h2.6L284.3,48
			c-3.4,1.5-9,3-15.3,3C254.6,51,244.5,43.2,244.5,25.9z"/>
		<path class="st0" d="M289.8,47.6l2.8-0.6c2-0.4,2.6-0.8,2.6-4.7V8.7c0-4-0.6-4.3-2.6-4.8l-2.8-0.6V0.9h21.4v2.5l-2.9,0.6
			c-2.1,0.6-2.6,0.8-2.6,4.8v14.4h19.2V8.7c0-4-0.4-4.2-2.5-4.8l-2.9-0.6V0.9h21.4v2.5l-2.9,0.6c-2,0.4-2.6,0.8-2.6,4.8v33.6
			c0,3.9,0.6,4.2,2.6,4.7l2.9,0.6v2.6h-21.4v-2.6l2.9-0.6c2.1-0.5,2.5-0.8,2.5-4.7V26.8h-19.2v15.5c0,3.9,0.4,4.2,2.6,4.7l2.9,0.6
			v2.6h-21.4V47.6z"/>
		<path class="st0" d="M343.1,47.6l2.1-0.5c2.1-0.6,2.8-1.1,4.8-6.3l14.6-39.9h5.9l15.2,40.4c1.8,4.8,2.8,5.3,4.7,5.9l1.8,0.4v2.6
			h-20.8v-2.6l2-0.5c1.9-0.5,2.6-1,2.6-2.3c0-1.1-0.6-2.4-1.2-4.4l-2.1-5.9h-16l-2,5.9c-0.6,2-1,3-1,4.1c0,1.6,0.9,2.1,2.8,2.6
			l2.2,0.5v2.6h-15.6V47.6z M357.8,30.9h13.5l-6.7-18.7h-0.4L357.8,30.9z"/>
		<path class="st0" d="M394.6,47.6l2.8-0.6c2-0.4,2.6-0.8,2.6-4.7V8.7c0-4-0.6-4.3-2.6-4.8l-2.8-0.6V0.9h21.8v2.5L413.1,4
			c-2.1,0.4-2.6,0.7-2.6,4.7v31.2c0,6.3,0.3,6.8,7.2,6.8c6.1,0,7.6-0.9,9.7-3.9c1.3-1.9,3-4.4,4.7-9.3h2.9l-1.1,16.7h-39.2V47.6z"/>
		<path class="st0" d="M438.4,47.6l2.8-0.6c2-0.4,2.6-0.8,2.6-4.7V8.7c0-4-0.6-4.3-2.6-4.8l-2.8-0.6V0.9h21.8v2.5L456.9,4
			c-2.1,0.4-2.6,0.7-2.6,4.7v31.2c0,6.3,0.3,6.8,7.2,6.8c6.1,0,7.6-0.9,9.7-3.9c1.3-1.9,3-4.4,4.7-9.3h2.9l-1.1,16.7h-39.2V47.6z"/>
		<path class="st0" d="M482.1,47.6l2.8-0.6c2-0.4,2.6-0.8,2.6-4.7V8.7c0-4-0.6-4.3-2.6-4.8l-2.8-0.6V0.9H521l0.9,13.5H519
			c-1.6-3.8-2.8-5.8-3.8-7.2c-2.2-2.8-3.7-2.8-9.4-2.8c-4.6,0-6.5,0.4-7.9,0.6v17.8h2.1c5.4,0,7-0.4,8-2.1c0.9-1.6,1.4-2.6,1.9-4.9
			h2.8v17.8H510c-0.6-2.2-1.1-3.1-1.9-5c-1-2-2.1-2.1-8-2.1H498v13.2c0,7,0.2,7,8.5,7c6.3,0,7.4-0.2,9.6-3.1c1.3-1.7,2.8-5,4.6-9.3
			h2.9l-1.1,15.9h-40.4V47.6z"/>
		<path class="st0" d="M537.7,8.3h-0.3v33.1c0,4.8,0.5,5.2,3.3,5.7l2.7,0.5v2.6h-15.6v-2.6l2.3-0.5c2.2-0.5,3.1-0.9,3.1-5.5V8.7
			c0-4-0.6-4.3-2.6-4.8l-2.8-0.6V0.9H545l20.6,32.1h0.3V9.5c0-4.8-0.5-5.1-3.3-5.7l-3.1-0.5V0.9h16v2.5l-2.3,0.5
			c-2.2,0.5-3.1,0.9-3.1,5.5v41h-5L537.7,8.3z"/>
		<path class="st0" d="M579.2,47.6L582,47c2-0.4,2.6-0.8,2.6-4.7V8.7c0-4-0.6-4.3-2.6-4.8l-2.8-0.6V0.9h21.5
			c11.9,0,18.6,3.4,18.6,11.7c0,6.5-4.6,10-12.8,11.2v0.4c10,1,15.3,4.6,15.3,12.2c0,9-7.1,13.9-19.1,13.9h-23.4V47.6z M600.1,22.7
			c6.1,0,8.9-2.8,8.9-8.9c0-7.8-2.8-9.5-9-9.5c-2,0-3.9,0.2-5,0.4v17.9H600.1z M610.7,36.8c0-7.8-2.8-10.5-10-10.5H595v15.4
			c0,4.4,0.8,5,6.5,5C607.3,46.6,610.7,44.4,610.7,36.8z"/>
		<path class="st0" d="M626.2,47.6l2.8-0.6c2-0.4,2.6-0.8,2.6-4.7V8.7c0-4-0.6-4.3-2.6-4.8l-2.8-0.6V0.9h38.9l0.9,13.5h-2.8
			c-1.6-3.8-2.8-5.8-3.8-7.2c-2.2-2.8-3.7-2.8-9.4-2.8c-4.6,0-6.5,0.4-7.9,0.6v17.8h2.1c5.4,0,7-0.4,8-2.1c0.9-1.6,1.4-2.6,1.9-4.9
			h2.8v17.8h-2.8c-0.6-2.2-1.1-3.1-1.9-5c-1-2-2.1-2.1-8-2.1H642v13.2c0,7,0.2,7,8.5,7c6.3,0,7.4-0.2,9.6-3.1c1.3-1.7,2.8-5,4.6-9.3
			h2.9l-1.1,15.9h-40.4V47.6z"/>
		<path class="st0" d="M671.8,47.6l2.8-0.6c2-0.4,2.6-0.8,2.6-4.7V8.7c0-4-0.6-4.3-2.6-4.8l-2.8-0.6V0.9h22.3
			c12.9,0,18.6,4.3,18.6,12.8c0,5.6-3.6,10.2-10.5,12.2v0.3c3.4,6.4,8,14,11.9,19.2c0.8,1.1,1.4,1.2,3.6,1.9l1.4,0.4v2.6h-13.4
			C701,44,696.3,35.7,693,28.6c-0.3,0-5.3-0.1-5.5-0.1v13.8c0,3.9,0.6,4.3,2.7,4.7l2.9,0.6v2.6h-21.3V47.6z M702,14.4
			c0-8.4-2.4-10.1-8.5-10.1c-2.8,0-4.8,0.2-5.9,0.5v19.9c0.1,0.1,2.1,0.3,3.9,0.3C698.8,25,702,22.1,702,14.4z"/>
		<path class="st0" d="M720.2,25.8C720.2,7,732.5,0,746.6,0c6.3,0,10.7,0.6,14.1,1.5l0.9,14.6h-2.9c-1.8-4.6-3.6-7.3-4.9-9.2
			c-1.7-2.6-2.6-3.3-8-3.3c-9.8,0-14.5,5.6-14.5,20.7c0,16.9,3.7,23,14,23c3.3,0,5.5-0.6,7.3-1.5V36c0-4-0.6-4.3-2.6-4.7l-3-0.6
			v-2.6h20.2v2.6l-2.1,0.5c-1.8,0.5-2.3,0.9-2.3,4.8v12.3c-4.1,1.3-10.7,2.7-17.1,2.7C729.6,51,720.2,42.6,720.2,25.8z"/>
	</g>
</g>
<g id="Layer_2">
</g>
</svg>
